<svg xmlns="http://www.w3.org/2000/svg" xmlns:xlink="http://www.w3.org/1999/xlink" viewBox="0 0 4521.6 504.8">
  <defs>
    <linearGradient id="wave-one" y1="273.67" x2="4521.55" y2="273.67" gradientUnits="userSpaceOnUse">
      <stop offset="0" stop-color="#c85b28" />
      <stop offset="0.05" stop-color="#bd6335" />
      <stop offset="0.14" stop-color="#a17857" />
      <stop offset="0.26" stop-color="#749b8e" />
      <stop offset="0.33" stop-color="#58b0b0" />
      <stop offset="0.68" stop-color="#b46a41" />
      <stop offset="0.75" stop-color="#a67552" />
      <stop offset="0.9" stop-color="#81907e" />
      <stop offset="1" stop-color="#66a59f" />
    </linearGradient>
    <linearGradient id="wave-two" x1="-27.72" y1="373.22" x2="4493.83" y2="373.22"
      gradientTransform="translate(4493.8 625.6) rotate(180)" xlink:href="#a" />
  </defs>
  <path
    d="M4075.6,237.7c-302-48.4-492,44.4-766,60.4s-264-2-654-46c-222.2-25-325.8-19.2-373.8-9.5h0c-42.6,4.2-300.6,3-453.2-21.5-302-48.4-492,44.5-766,60.5s-264-2-654-46S0,249.6,0,249.6s20.8-14,154.6-18,489.7,28,638.8,67c249.2,65,500.7-56.6,797.2-39,377.4,22.4,638.6,5.9,687.7-2.5,12.8-2.2,58.1-4.8,68.1-6.9h0l55.2-2.1c133.8-4,489.6,28.1,638.8,67,249.2,65,501.2-15,797.2-39s684,27.8,684,27.8V276.1S4377.6,286.1,4075.6,237.7Z"
    style="fill:url(#wave-one)" />
  <path
    d="M446,340.4c302,118.5,492-108.8,766-147.9s264,4.9,654,112.6c222.1,61.3,325.7,47,373.7,23.3h0c42.7-10.2,300.6-7.4,453.3,52.6,302,118.5,492-108.8,766-147.9s264,4.9,654,112.5,408.6-34.2,408.6-34.2-20.8,34.2-154.6,44-489.7-68.7-638.9-163.9C3479,32.4,3227.4,330,2931,286.9c-377.4-54.8-638.6-14.6-687.8,6.1-12.7,5.4-58,11.6-68,16.8h0c-16,1.8-34.3,3.5-55.2,5-133.8,9.8-489.7-68.7-638.9-163.9C1232-8.2,980,187.6,684,246.3S0,178.4,0,178.4v67.9S144,221.9,446,340.4Z"
    style="fill:url(#wave-two)" />
</svg>